<svg width="1227" height="555" viewBox="0 0 1227 555" fill="none" xmlns="http://www.w3.org/2000/svg">
<rect x="41" y="192" width="1101" height="183" rx="88" fill="url(#paint0_linear_2_2)"/>
<g clip-path="url(#clip0_2_2)">
<path fill-rule="evenodd" clip-rule="evenodd" d="M401 228H521V348H401V228Z" fill="#F7DF1E"/>
<path fill-rule="evenodd" clip-rule="evenodd" d="M432.553 328.283L441.732 322.727C443.5 325.871 445.111 328.527 448.979 328.527C452.68 328.527 455.023 327.082 455.023 321.438V283.088H466.303V321.594C466.303 333.273 459.457 338.586 449.467 338.586C440.443 338.586 435.209 333.918 432.553 328.283ZM472.426 327.072L481.605 321.76C484.027 325.705 487.162 328.605 492.719 328.605C497.387 328.605 500.375 326.271 500.375 323.049C500.375 319.182 497.318 317.814 492.162 315.559L489.34 314.348C481.205 310.881 475.805 306.535 475.805 297.355C475.805 288.898 482.25 282.453 492.318 282.453C499.486 282.453 504.643 284.953 508.344 291.477L499.564 297.111C497.631 293.645 495.541 292.277 492.318 292.277C489.018 292.277 486.918 294.367 486.918 297.111C486.918 300.49 489.008 301.867 493.842 303.957L496.664 305.168C506.254 309.279 511.645 313.469 511.645 322.893C511.645 333.039 503.666 338.596 492.953 338.596C482.494 338.596 475.727 333.596 472.426 327.072Z" fill="black"/>
</g>
<g clip-path="url(#clip1_2_2)">
<path fill-rule="evenodd" clip-rule="evenodd" d="M340.624 334.332L300 346L259.375 334.332L250 226H350L340.624 334.332Z" fill="#2062AF"/>
<path fill-rule="evenodd" clip-rule="evenodd" d="M299.999 234.775V336.694L300.091 336.721L332.967 327.278L340.555 234.775H299.999Z" fill="#3C9CD7"/>
<path fill-rule="evenodd" clip-rule="evenodd" d="M299.963 261.862L270.887 274.779L271.851 287.568L299.963 274.747L329.867 261.109L331.107 248.027L299.963 261.862Z" fill="white"/>
<mask id="mask0_2_2" style="mask-type:luminance" maskUnits="userSpaceOnUse" x="270" y="261" width="31" height="27">
<path fill-rule="evenodd" clip-rule="evenodd" d="M270.836 261.808H300.014V287.622H270.836V261.808Z" fill="url(#paint1_linear_2_2)"/>
</mask>
<g mask="url(#mask0_2_2)">
<path fill-rule="evenodd" clip-rule="evenodd" d="M270.887 274.779L271.851 287.568L299.963 274.747V261.862L270.887 274.779Z" fill="url(#paint2_linear_2_2)"/>
</g>
<mask id="mask1_2_2" style="mask-type:luminance" maskUnits="userSpaceOnUse" x="299" y="247" width="33" height="28">
<path fill-rule="evenodd" clip-rule="evenodd" d="M299.913 247.973H331.158V274.801H299.913V247.973Z" fill="url(#paint3_linear_2_2)"/>
</mask>
<g mask="url(#mask1_2_2)">
<path fill-rule="evenodd" clip-rule="evenodd" d="M331.107 248.027L299.963 261.862V274.747L329.867 261.109L331.107 248.027Z" fill="url(#paint4_linear_2_2)"/>
</g>
<path fill-rule="evenodd" clip-rule="evenodd" d="M270.931 274.779L271.896 287.568L315.03 287.714L314.065 304.766L299.872 309.028L286.228 305.353L285.401 294.769H272.723L274.377 315.202L300.01 323.286L325.504 315.348L328.811 274.779H270.931Z" fill="url(#paint5_linear_2_2)"/>
<path fill-rule="evenodd" clip-rule="evenodd" d="M299.963 274.779H270.887L271.851 287.568L299.963 287.663V274.779ZM299.963 308.987L299.826 309.028L286.183 305.353L285.356 294.769H272.679L274.332 315.202L299.963 323.286V308.987Z" fill="black" fill-opacity="0.05098"/>
<path fill-rule="evenodd" clip-rule="evenodd" d="M268.269 248.027H331.107L329.867 261.109H269.784L268.269 248.027Z" fill="url(#paint6_linear_2_2)"/>
<path fill-rule="evenodd" clip-rule="evenodd" d="M299.963 248.027H268.269L269.784 261.109H299.963V248.027Z" fill="black" fill-opacity="0.05098"/>
</g>
<path fill-rule="evenodd" clip-rule="evenodd" d="M199.523 226L190.275 333.988L148.701 346L107.239 334.008L98 226H199.523Z" fill="#E44D26"/>
<path fill-rule="evenodd" clip-rule="evenodd" d="M148.757 336.82L182.357 327.113L190.256 234.828H148.757V336.82Z" fill="#F16529"/>
<path fill-rule="evenodd" clip-rule="evenodd" d="M130.785 261.322H148.766V248.08H116.89L117.19 251.635L120.31 288.139H148.747V274.887H131.947L130.785 261.322ZM133.643 294.76H120.891L122.671 315.561L148.71 323.09L148.766 323.07V309.291L148.71 309.311L134.552 305.326L133.643 294.76Z" fill="#EBEBEB"/>
<path fill-rule="evenodd" clip-rule="evenodd" d="M148.719 288.139H164.367L162.896 305.316L148.719 309.301V323.08L174.777 315.551L174.964 313.314L177.953 278.441L178.263 274.887H148.719V288.139ZM148.719 261.293V261.322H179.415L179.668 258.344L180.249 251.625L180.549 248.07H148.719V261.293Z" fill="white"/>
<g clip-path="url(#clip2_2_2)">
<path d="M1003.88 355.923C992.644 355.114 981.542 352.286 974.733 348.501C970.855 346.345 967.9 343.696 966.741 341.334L966.051 339.929V295.858V251.787L966.597 250.679C969.036 245.726 976.822 241.262 987.689 238.583C991.378 237.673 996.704 236.768 1001.05 236.311C1005.49 235.844 1017.24 235.915 1021.67 236.436C1033.43 237.818 1043.44 240.912 1049.61 245.072C1051.99 246.676 1054.43 249.244 1055.26 251.011L1055.96 252.526L1055.9 296.463L1055.84 340.401L1055.27 341.557C1054.96 342.193 1054.02 343.444 1053.17 344.337C1048.04 349.774 1037.04 353.796 1022.61 355.51C1019.67 355.859 1006.89 356.141 1003.88 355.923ZM1024.58 318.16C1024.53 318.048 1022.85 316.552 1020.85 314.836C1018.84 313.12 1017.11 311.636 1017 311.537C1016.89 311.438 1017.27 311.09 1017.82 310.762C1018.38 310.434 1019.46 309.521 1020.21 308.734C1022.4 306.432 1023.44 303.589 1023.44 299.865C1023.44 296.198 1022.32 293.24 1020.08 290.982C1017.83 288.705 1015.24 287.727 1011.47 287.727C1005.66 287.727 1001.19 291.118 999.77 296.616C999.28 298.507 999.282 302.328 999.775 304.005C1001.06 308.379 1004.56 311.555 1008.91 312.301C1010.39 312.554 1010.59 312.663 1011.59 313.761C1012.19 314.414 1013.41 315.717 1014.31 316.656L1015.95 318.365H1020.3C1022.7 318.365 1024.62 318.273 1024.58 318.16ZM1009.65 305.974C1008.6 305.428 1008.21 305.004 1007.61 303.79C1007.15 302.851 1007.07 302.318 1007.06 300.1C1007.06 297.847 1007.13 297.36 1007.61 296.382C1008.4 294.781 1009.49 294.023 1011.17 293.902C1013.51 293.732 1014.86 294.88 1015.57 297.639C1016.43 301.022 1015.48 304.618 1013.4 305.812C1012.3 306.438 1010.68 306.509 1009.65 305.974ZM990.36 312.253C994.923 311.388 997.514 308.734 997.514 304.925C997.514 301.545 995.841 299.576 991.219 297.513C988.574 296.332 987.615 295.59 987.615 294.724C987.615 294.006 988.525 293.219 989.583 293.022C990.617 292.829 993.359 293.305 994.978 293.959L996.335 294.507V291.503V288.499L994.862 288.172C993.952 287.97 992.039 287.849 989.854 287.855C986.759 287.855 986.153 287.931 984.989 288.393C981.587 289.744 979.973 292.044 979.998 295.505C980.023 298.744 981.732 300.765 985.985 302.583C988.495 303.656 989.501 304.473 989.501 305.438C989.501 307.489 986.083 307.741 982.465 305.958C981.474 305.469 980.583 305.03 980.486 304.981C980.389 304.932 980.309 306.335 980.309 308.099C980.309 311.292 980.313 311.307 980.891 311.528C983.068 312.355 987.879 312.724 990.36 312.253ZM1042.53 309.292V306.581H1038.4H1034.28V297.272V287.963H1030.63H1026.97V299.982V312.002H1034.75H1042.53V309.292ZM1017.07 261.797C1024.33 261.294 1029.77 260.343 1034.56 258.742C1039.33 257.147 1042.15 255.217 1042.78 253.114C1043.02 252.303 1043.01 251.995 1042.67 251.107C1041.15 247.122 1032.64 244.06 1019.65 242.819C1014.1 242.288 1003.99 242.46 998.692 243.176C990.608 244.268 984.047 246.297 981.129 248.607C975.228 253.28 981.469 258.42 995.982 260.839C1002.27 261.888 1010.43 262.258 1017.07 261.797Z" fill="#00BCF2"/>
</g>
<g clip-path="url(#clip3_2_2)">
<path d="M595.437 245.506C595.157 237.959 601.446 231 609.947 231H697.065C705.566 231 711.854 237.959 711.575 245.506C711.304 252.757 711.654 262.145 714.183 269.804C716.72 277.484 720.995 282.34 728 282.963V290.037C720.995 290.66 716.72 295.516 714.183 303.196C711.654 310.855 711.304 320.243 711.575 327.494C711.854 335.041 705.566 342 697.065 342H609.947C601.446 342 595.157 335.041 595.437 327.494C595.707 320.243 595.355 310.855 592.829 303.196C590.291 295.516 586.005 290.66 579 290.037V282.963C586.005 282.34 590.291 277.484 592.829 269.804C595.355 262.145 595.707 252.757 595.437 245.506Z" fill="url(#paint7_linear_2_2)"/>
<path fill-rule="evenodd" clip-rule="evenodd" d="M678.789 299.314C678.789 309.707 670.495 316.008 656.73 316.008H630.772V256.971H656.596C668.074 256.971 675.606 262.779 675.606 271.697C675.606 277.957 670.542 283.564 664.084 284.544V284.873C672.873 285.774 678.789 291.46 678.789 299.314ZM640.815 308.52V289.087H654.085C663.59 289.087 668.522 292.36 668.522 298.743C668.522 305.125 663.726 308.52 654.67 308.52H640.815ZM640.815 264.458H654.175C661.439 264.458 665.563 267.486 665.563 272.968C665.563 278.817 660.767 282.09 652.068 282.09H640.815V264.458Z" fill="white"/>
</g>
<path d="M839.5 347.312C872.603 347.312 899.438 320.086 899.438 286.5C899.438 252.914 872.603 225.688 839.5 225.688C806.397 225.688 779.562 252.914 779.562 286.5C779.562 320.086 806.397 347.312 839.5 347.312Z" fill="#8892BF"/>
<path d="M832.818 260.438H840.01L837.978 271.402H844.441C847.985 271.479 850.625 272.282 852.363 273.813C854.135 275.344 854.656 278.253 853.927 282.539L850.435 301.655H843.138L846.473 283.4C846.821 281.486 846.716 280.128 846.161 279.324C845.605 278.521 844.406 278.119 842.565 278.119L836.779 278.061L832.505 301.655H825.312L832.818 260.438Z" fill="white"/>
<path fill-rule="evenodd" clip-rule="evenodd" d="M799.86 271.402H813.828C817.928 271.44 820.899 272.742 822.741 275.306C824.582 277.87 825.19 281.371 824.565 285.811C824.322 287.84 823.783 289.829 822.949 291.782C822.15 293.733 821.038 295.493 819.614 297.063C817.876 299.053 816.017 300.315 814.036 300.852C812.056 301.388 810.005 301.655 807.886 301.655H801.632L799.651 312.563H792.406L799.86 271.402ZM802.83 295.168L805.947 278.004H807C807.383 278.004 807.782 277.985 808.199 277.947C810.979 277.909 813.289 278.196 815.131 278.808C817.007 279.42 817.633 281.735 817.007 285.754C816.243 290.538 814.748 293.331 812.525 294.135C810.301 294.901 807.521 295.264 804.186 295.226H803.456C803.247 295.226 803.039 295.206 802.83 295.168Z" fill="white"/>
<path fill-rule="evenodd" clip-rule="evenodd" d="M875.619 271.402H861.65L854.197 312.563H861.442L863.423 301.655H869.677C871.797 301.655 873.847 301.388 875.827 300.852C877.808 300.315 879.667 299.053 881.404 297.063C882.829 295.493 883.941 293.733 884.74 291.782C885.574 289.829 886.113 287.84 886.356 285.811C886.981 281.371 886.374 277.87 884.532 275.306C882.69 272.742 879.719 271.44 875.619 271.402ZM867.738 278.004L864.622 295.168C864.83 295.206 865.039 295.226 865.247 295.226H865.977C869.313 295.264 872.092 294.901 874.316 294.135C876.539 293.331 878.034 290.538 878.798 285.754C879.424 281.735 878.798 279.42 876.922 278.808C875.08 278.196 872.77 277.909 869.99 277.947C869.573 277.985 869.174 278.004 868.791 278.004H867.738Z" fill="white"/>
<defs>
<linearGradient id="paint0_linear_2_2" x1="41" y1="283.5" x2="1142" y2="283.5" gradientUnits="userSpaceOnUse">
<stop stop-color="white"/>
<stop offset="0.04" stop-color="#B3B3B3"/>
<stop offset="0.185" stop-color="#B100AA"/>
<stop offset="0.45" stop-color="#000E80"/>
<stop offset="0.73"/>
</linearGradient>
<linearGradient id="paint1_linear_2_2" x1="285.425" y1="261.862" x2="285.425" y2="287.568" gradientUnits="userSpaceOnUse">
<stop stop-color="white" stop-opacity="0"/>
<stop offset="0.388" stop-color="white"/>
<stop offset="1" stop-color="white" stop-opacity="0.831"/>
</linearGradient>
<linearGradient id="paint2_linear_2_2" x1="285.425" y1="261.862" x2="285.425" y2="287.568" gradientUnits="userSpaceOnUse">
<stop stop-color="#D1D3D4"/>
<stop offset="0.388" stop-color="#D1D3D4"/>
<stop offset="1" stop-color="#D1D3D4"/>
</linearGradient>
<linearGradient id="paint3_linear_2_2" x1="315.535" y1="248.027" x2="315.535" y2="274.747" gradientUnits="userSpaceOnUse">
<stop stop-color="white" stop-opacity="0"/>
<stop offset="0.388" stop-color="white"/>
<stop offset="1" stop-color="white" stop-opacity="0.831"/>
</linearGradient>
<linearGradient id="paint4_linear_2_2" x1="315.535" y1="248.027" x2="315.535" y2="274.747" gradientUnits="userSpaceOnUse">
<stop stop-color="#D1D3D4"/>
<stop offset="0.388" stop-color="#D1D3D4"/>
<stop offset="1" stop-color="#D1D3D4"/>
</linearGradient>
<linearGradient id="paint5_linear_2_2" x1="270.931" y1="299.033" x2="328.811" y2="299.033" gradientUnits="userSpaceOnUse">
<stop stop-color="#E8E7E5"/>
<stop offset="1" stop-color="white"/>
</linearGradient>
<linearGradient id="paint6_linear_2_2" x1="268.268" y1="254.568" x2="331.107" y2="254.568" gradientUnits="userSpaceOnUse">
<stop stop-color="#E8E7E5"/>
<stop offset="1" stop-color="white"/>
</linearGradient>
<linearGradient id="paint7_linear_2_2" x1="601.117" y1="233.721" x2="724.329" y2="338.391" gradientUnits="userSpaceOnUse">
<stop stop-color="#9013FE"/>
<stop offset="1" stop-color="#6610F2"/>
</linearGradient>
<clipPath id="clip0_2_2">
<rect width="120" height="120" fill="white" transform="translate(401 228)"/>
</clipPath>
<clipPath id="clip1_2_2">
<rect width="100" height="120" fill="white" transform="translate(250 226)"/>
</clipPath>
<clipPath id="clip2_2_2">
<rect width="120" height="120" fill="white" transform="translate(951 236)"/>
</clipPath>
<clipPath id="clip3_2_2">
<rect width="149" height="111" fill="white" transform="translate(579 231)"/>
</clipPath>
</defs>
</svg>
